<svg version="1.1" id="Layer_1" xmlns="http://www.w3.org/2000/svg" xmlns:xlink="http://www.w3.org/1999/xlink" x="0px" y="0px"
	 viewBox="0 0 194 194" style="enable-background:new 0 0 194 194;" xml:space="preserve">
<style type="text/css">
	.st0{fill:#F03C2E;}
</style>
<title>git</title>
<desc>Created with Sketch.</desc>
<g>
	<title>git</title>
	<desc>Created with Sketch.</desc>
	<g id="Page-1_10_">
		<g id="git">
			<path id="Shape_11_" class="st0" d="M3.7,88.4L88.4,3.7c4.9-4.9,12.8-4.9,17.7,0l17.6,17.6l-22.3,22.3C96.1,41.8,90.2,43,86,47.1
				c-4.2,4.2-5.3,10.2-3.5,15.4L61,84c-5.2-1.8-11.2-0.6-15.4,3.5c-5.8,5.8-5.8,15.2,0,21c5.8,5.8,15.2,5.8,21,0
				c4.4-4.4,5.4-10.8,3.2-16.2L90,72.3v52.8c-1.4,0.7-2.8,1.6-3.9,2.8c-5.8,5.8-5.8,15.2,0,21c5.8,5.8,15.2,5.8,21,0
				c5.8-5.8,5.8-15.2,0-21c-1.4-1.4-3.1-2.5-4.9-3.2V71.4c1.8-0.7,3.4-1.8,4.9-3.2c4.4-4.4,5.5-10.9,3.2-16.3l22-22L190.3,88
				c4.9,4.9,4.9,12.8,0,17.7l-84.7,84.7c-4.9,4.9-12.8,4.9-17.7,0L3.7,106C-1.2,101.2-1.2,93.2,3.7,88.4"/>
		</g>
	</g>
</g>
</svg>